PathFileType	4	(X/Y/Z)	D:\TRACE\spot_10-12-23\spot_body_motion_2_3-v60.trc
DataRate	CameraRate	NumFrames	NumMarkers	Units	OrigDataRate	OrigDataStartFrame	OrigNumFrames
100.00	100.00	      28	9	mm	100.00	1751	      7000
Frame#	Time	front left toe			Front right toe			aft left toe			aft right toe			Arm			FL body			FR body			AL Body			AR Body			
		X1	Y1	Z1	X2	Y2	Z2	X3	Y3	Z3	X4	Y4	Z4	X5	Y5	Z5	X6	Y6	Z6	X7	Y7	Z7	X8	Y8	Z8	X9	Y9	Z9	

1751	17.500	-153.84615	30.05512	-31.03432	349.76407	16.21387	133.91559	-301.81381	21.33557	489.59375	257.50995	4.42126	625.03119	189.08621	824.66711	-49.90179	108.86119	559.98407	-64.07051	257.12521	568.06909	-31.27237	-84.16841	516.36279	797.24188	61.57364	517.94263	832.00610	
1752	17.510	-155.51492	29.16737	-30.51482	350.07611	17.66480	134.34975	-303.24124	22.23127	489.64435	256.92596	5.16619	625.16248	185.78407	825.02710	-48.37759	106.37173	560.37915	-62.41684	255.23666	568.39874	-29.32551	-87.37103	516.82062	798.75397	58.70918	518.46326	833.53198	
1753	17.520	-156.50543	28.08858	-31.50272	350.36115	23.91548	138.42873	-305.34100	22.63963	490.03296	255.57564	6.33110	625.35541	182.98654	825.44006	-46.65062	103.65205	561.23865	-61.12925	252.39412	569.18237	-27.66911	-89.52152	517.11743	800.40179	56.12094	518.84265	835.07593	
1754	17.530	-158.50459	28.07507	-30.81770	343.65472	35.40821	140.07312	-306.93347	23.09216	489.73608	253.69846	7.80975	625.13953	180.97220	826.09912	-44.92650	100.80455	561.49139	-59.35509	250.05002	568.72650	-26.39263	-92.02412	518.11237	801.89264	54.76088	519.03424	836.77539	
1755	17.540	-159.57202	28.13553	-31.83707	345.63928	48.82755	142.23505	-307.45883	24.69859	488.84421	252.81541	9.44797	624.75104	179.50449	826.54913	-43.45366	98.37449	561.77533	-57.95506	247.14641	569.07367	-25.26061	-95.03760	518.61139	802.72565	51.45165	520.10632	838.03210	
1756	17.550	-160.74399	27.93935	-31.82547	347.60358	61.09842	139.46474	-308.96399	24.91836	489.21628	251.08453	10.42298	624.51190	177.65500	826.55084	-42.16403	96.09177	562.03534	-56.56316	244.73232	569.29211	-23.72237	-97.32596	519.72406	804.73633	48.28223	520.73260	839.42737	
1757	17.560	-161.45752	27.74729	-32.19810	351.54990	74.40378	134.59038	-310.43256	26.60761	489.06793	249.91081	12.15307	624.48645	175.24760	826.66943	-41.05872	93.87029	562.24426	-55.21687	242.98486	569.18561	-22.04871	-99.94617	520.59882	805.81372	45.73333	521.74933	840.74530	
1758	17.570	-162.34460	27.85571	-32.68052	352.46335	86.21733	129.87363	-311.61066	26.45848	488.79022	248.94539	13.38997	624.16522	172.30396	826.92395	-40.31089	91.87259	562.42780	-53.89083	240.50516	569.96759	-21.04402	-102.52377	521.39423	807.08844	43.21137	522.67725	841.99756	
1759	17.580	-163.12117	27.82113	-32.87385	352.98022	97.50980	128.00229	-312.71027	27.67822	488.12497	247.65823	14.89209	624.23065	169.92664	827.30194	-39.17014	89.69361	562.70654	-52.88125	238.23465	570.67297	-19.46911	-105.01716	521.92523	808.28619	40.97580	523.72980	843.41693	
1760	17.590	-164.41075	27.45889	-32.88149	352.27039	106.94535	127.87170	-313.80737	28.53483	488.14725	247.05028	16.24733	623.86230	167.29536	827.79114	-38.25097	87.61839	562.73120	-51.56490	236.29367	570.86023	-18.55482	-107.68723	522.73730	808.90295	38.83241	524.61890	844.51392	
1761	17.600	-165.64462	27.23961	-33.30343	351.24048	115.23608	128.08067	-314.71069	29.41359	488.00308	245.55167	17.23550	623.44269	165.24394	828.02991	-37.34239	85.22116	562.93579	-50.64095	233.88342	571.07800	-17.60861	-108.88184	523.35413	810.92462	37.16983	525.27820	845.51501	
1762	17.610	-167.38794	27.01874	-33.38337	352.82751	124.91557	127.88033	-315.95676	30.62851	487.72284	244.75601	18.86432	623.29846	163.50697	828.06024	-36.45778	83.02584	563.00995	-49.64567	231.48996	571.25977	-16.92562	-110.70031	524.26294	811.79822	35.37730	526.21008	846.52618	
1763	17.620	-168.06505	26.72290	-33.65067	354.53043	132.59818	125.33842	-316.88333	31.43180	487.59061	243.99863	19.91284	622.94312	161.36023	828.03992	-35.74478	80.80933	563.23895	-48.63846	229.67946	571.18146	-15.61356	-112.47066	525.02740	813.88605	33.98260	526.97430	847.51520	
1764	17.630	-169.45230	26.75503	-34.22234	357.86160	139.50632	122.65324	-317.82486	32.38554	487.41959	242.64009	21.10314	622.55994	158.74530	828.19440	-35.34961	78.75724	563.17401	-47.69110	226.74753	571.54919	-15.18608	-113.75581	525.77283	813.80780	32.14146	527.92566	848.60217	
1765	17.640	-170.08224	26.55482	-34.29847	359.39151	143.22421	119.73939	-318.88373	33.42868	487.13376	241.50778	22.60278	622.54248	156.25670	828.22461	-34.77978	76.64774	563.26978	-46.95623	225.44981	571.89954	-14.52189	-115.54635	526.49420	814.94495	30.51579	528.81360	849.48242	
1766	17.650	-171.06752	26.46759	-34.44249	361.38562	144.46208	118.31057	-319.76254	34.29504	486.73703	240.85887	23.89803	622.12616	153.89043	828.21466	-34.34489	74.85261	563.33667	-46.01148	223.98482	571.51752	-13.20174	-117.08510	527.25989	816.11481	28.76970	529.77295	850.41016	
1767	17.660	-172.17574	26.28113	-34.83192	361.89462	144.07115	116.43709	-320.74893	35.36375	486.62830	239.57747	24.88915	621.70300	151.91249	828.41919	-33.82023	72.92633	562.94446	-45.28252	221.78142	571.71198	-12.87434	-118.61674	528.38177	816.63660	27.17253	530.85889	851.06482	
1768	17.670	-173.11098	25.92037	-35.03415	363.07007	142.78241	114.96282	-321.67422	36.35693	486.29636	238.59341	26.40530	621.60840	150.23831	828.33801	-33.58349	71.21332	563.09778	-44.56175	220.09236	571.77179	-11.92064	-120.03020	529.31299	817.64124	26.06980	531.90710	851.98309	
1769	17.680	-174.25951	25.75934	-35.21685	363.73819	143.47020	112.79048	-322.50912	37.24353	486.09314	237.99693	27.47968	621.25842	148.92328	828.26080	-33.21204	69.33840	563.23615	-43.88298	218.18442	571.75873	-11.48645	-121.64645	530.63123	818.02692	24.73054	532.86957	852.81006	
1770	17.690	-175.16113	25.64054	-35.62981	365.08823	144.11865	110.63705	-323.52054	38.38604	485.77142	237.10632	28.67822	620.76953	147.87070	828.12225	-32.84052	67.62648	562.94751	-43.28956	216.49461	571.46631	-11.08015	-122.56041	531.61707	819.25763	23.34544	534.03229	853.42767	
1771	17.700	-176.29134	25.65410	-35.83179	367.30759	145.30165	108.91217	-324.31540	39.35802	485.53799	235.92654	29.79689	620.79987	146.62314	828.05237	-32.62119	66.25646	563.11554	-42.69799	214.76497	571.79047	-10.98579	-123.95150	532.75568	819.98987	22.17254	534.96033	854.00299	
1772	17.710	-176.80688	25.47721	-36.01495	369.08072	146.16393	106.68246	-325.21326	40.33177	485.37967	235.21336	31.16683	620.36987	145.39001	827.87238	-32.47478	64.83140	563.19592	-42.25280	213.80945	571.05133	-9.72037	-125.69395	533.99707	820.58844	20.77310	535.87347	854.57251	
1773	17.720	-177.47272	25.28242	-36.47672	371.62573	147.22932	105.16331	-325.98837	41.29035	485.00095	234.39119	32.43795	619.93823	144.18532	827.71735	-32.23172	63.39789	562.90881	-41.82011	212.45262	570.80402	-9.34708	-127.47518	535.58185	821.29932	18.96317	536.91565	855.05103	
1774	17.730	-178.35558	25.24416	-36.79905	372.92526	147.18217	103.02473	-326.66565	41.99136	484.68408	233.47906	33.55955	619.70264	142.76956	827.72986	-32.33928	62.07924	562.84839	-41.24600	211.12939	570.76331	-9.13572	-129.09937	536.63306	821.10992	17.74017	537.74152	855.28497	
1775	17.740	-179.06114	25.07238	-37.06655	374.31262	145.89268	101.24467	-327.37949	42.95375	484.27228	232.64093	34.70897	619.60394	141.88564	827.44751	-32.11032	61.31929	562.58319	-40.92637	209.94888	570.78979	-8.51349	-130.28722	537.61157	821.60480	16.49875	538.95599	855.97797	
1776	17.750	-179.64818	24.97711	-37.24235	375.55792	140.94116	99.49510	-328.23254	43.92489	484.09775	231.84598	36.09831	619.43665	140.91261	827.32092	-31.99316	59.90620	562.70001	-40.66972	209.13989	570.71350	-7.96416	-131.29974	538.72443	822.46503	15.18673	540.21436	856.56232	
1777	17.760	-180.63858	24.91676	-37.56731	376.89261	134.17926	97.39944	-328.96390	44.97008	483.72430	231.49150	37.21685	619.16254	140.10139	827.30731	-31.87729	59.01009	562.69281	-40.19768	207.85330	570.75720	-7.71153	-132.85054	539.77521	822.68781	13.80777	541.28082	856.73260	
1778	17.770	-181.44403	24.95810	-38.20177	378.31259	125.28638	95.38381	-329.54214	45.63657	483.48593	230.50546	38.38919	618.77527	139.05467	827.32751	-31.90504	58.04879	562.56165	-39.89337	206.86014	570.71429	-7.35586	-133.92912	540.68237	822.84204	12.36780	542.23651	857.03247	
